#!OML:ASF G:\ViconDB\ViconDB\414\test\team2\shane.ASF
:FULLY-SPECIFIED
:DEGREES
346
root 18.4663 16.7755 0.98271 -187.014 13.1447 -171.759
lowerback 11.1041 0.636275 3.99999
upperback 4.02061 1.77962 2.40497
thorax -1.99366 1.08307 0.0152957
lowerneck -14.4359 -5.73644 -6.65347
upperneck 20.6846 -7.54137 7.22077
head 9.44253 -3.06391 2.67656
rclavicle 9.44227e-015 -1.45113e-014
rhumerus -22.5713 -6.70476 -85.9842
rradius 22.1455
rwrist 45.3091
rhand -30.9274 -16.9449
rfingers 7.12502
rthumb -4.21302 -46.883
lclavicle 9.44227e-015 -1.45113e-014
lhumerus -36.0786 -7.75965 87.6272
lradius 17.1262
lwrist -22.9073
lhand -37.8444 7.35098
lfingers 7.12502
lthumb -10.8891 37.0486
rfemur 11.1148 -19.2223 17.7448
rtibia 20.3922
rfoot -21.0237 3.59042
rtoes -7.39687
lfemur -8.25253 1.30971 -4.11995
ltibia 55.1362
lfoot -22.0046 -21.4418
ltoes -15.1364
347
root 18.5196 16.7818 0.86191 -187.1 12.8641 -171.978
lowerback 11.1769 0.806388 3.97486
upperback 4.04741 2.0039 2.31024
thorax -1.99672 1.19554 -0.0979843
lowerneck -14.3906 -5.77798 -6.69242
upperneck 20.8044 -7.59271 7.25738
head 9.48334 -3.07989 2.69166
rclavicle -2.50966e-014 7.55382e-015
rhumerus -21.6106 -5.58274 -86.4464
rradius 22.6757
rwrist 44.5541
rhand -30.9644 -17.3485
rfingers 7.12502
rthumb -4.24873 -47.2859
lclavicle -2.50966e-014 7.55382e-015
lhumerus -36.6228 -7.10852 86.7821
lradius 16.5275
lwrist -24.664
lhand -38.1255 7.6349
lfingers 7.12502
lthumb -11.1603 37.3181
rfemur 11.992 -18.8021 17.6025
rtibia 19.6414
rfoot -20.8796 2.9816
rtoes -7.35988
lfemur -9.2682 1.3888 -4.60027
ltibia 53.7105
lfoot -22.444 -20.8702
ltoes -14.7851
348
root 18.5658 16.7903 0.737263 -187.088 12.586 -172.226
lowerback 11.1575 0.993526 4.08781
upperback 4.03592 2.24984 2.12283
thorax -1.9786 1.31605 -0.385246
lowerneck -14.4369 -5.78227 -6.56439
upperneck 20.9979 -7.6119 7.22172
head 9.55439 -3.07056 2.65749
rclavicle -1.96548e-014 1.39149e-015
rhumerus -20.8011 -4.48129 -86.9855
rradius 23.3665
rwrist 42.8876
rhand -31.0748 -16.9268
rfingers 7.12502
rthumb -4.35533 -46.8621
lclavicle -1.96548e-014 1.39149e-015
lhumerus -37.0687 -6.72391 85.9201
lradius 16.1416
lwrist -25.1108
lhand -37.898 7.51206
lfingers 7.12502
lthumb -10.9409 37.207
rfemur 12.839 -18.8176 17.2688
rtibia 18.8023
rfoot -20.7059 2.7767
rtoes -7.60562
lfemur -10.2937 1.81669 -5.08613
ltibia 52.0698
lfoot -22.9907 -20.5551
ltoes -15.1479
349
root 18.6142 16.7975 0.610751 -187.085 12.3584 -172.371
lowerback 11.0428 1.1905 4.15635
upperback 4.06931 2.50534 2.01693
thorax -1.86435 1.4457 -0.55962
lowerneck -14.2552 -5.77197 -6.71009
upperneck 20.9131 -7.61646 7.48237
head 9.50857 -3.05668 2.77561
rclavicle -2.97183e-014 -3.39922e-014
rhumerus -20.0309 -2.76682 -87.4994
rradius 24.0607
rwrist 41.2
rhand -31.6249 -17.4538
rfingers 7.12502
rthumb -4.88651 -47.3775
lclavicle -2.97183e-014 -3.39922e-014
lhumerus -37.6891 -6.57318 85.2387
lradius 16.0318
lwrist -25.4713
lhand -37.6821 7.47501
lfingers 7.12502
lthumb -10.7326 37.1809
rfemur 13.7582 -18.6945 17.1058
rtibia 17.8494
rfoot -20.4989 2.5408
rtoes -7.66285
lfemur -11.1771 2.32632 -5.45126
ltibia 50.2237
lfoot -23.3787 -20.0459
ltoes -15.0628
350
root 18.6676 16.7969 0.498984 -186.956 11.7691 -172.451
lowerback 11.1978 1.29927 4.22992
upperback 3.93872 2.65335 1.86277
thorax -2.0681 1.50908 -0.78689
lowerneck -14.7028 -5.79773 -6.26822
upperneck 21.4131 -7.67855 7.19878
head 9.74217 -3.05186 2.59218
rclavicle -4.47266e-016 -9.93923e-015
rhumerus -19.3748 -2.05384 -87.7768
rradius 24.7945
rwrist 40.7926
rhand -31.3455 -16.7643
rfingers 7.12502
rthumb -4.61672 -46.694
lclavicle -4.47266e-016 -9.93923e-015
lhumerus -38.1964 -6.60489 84.5829
lradius 15.8952
lwrist -24.9782
lhand -36.8414 7.26874
lfingers 7.12502
lthumb -9.92163 37.0149
rfemur 14.6011 -18.6974 17.1897
rtibia 16.7568
rfoot -20.1648 1.73043
rtoes -8.6629
lfemur -12.2657 2.73811 -5.7308
ltibia 48.2065
lfoot -23.6252 -19.9087
ltoes -15.0918
351
root 18.7092 16.8084 0.356486 -186.907 11.7464 -172.653
lowerback 10.9904 1.53214 4.30187
upperback 3.91001 2.9439 1.75248
thorax -1.96226 1.65124 -0.968564
lowerneck -14.5892 -5.72423 -6.23799
upperneck 21.4481 -7.56954 7.1694
head 9.7222 -2.99896 2.59544
rclavicle -4.20181e-014 -2.26615e-014
rhumerus -18.9831 0.312028 -88.2718
rradius 25.9407
rwrist 37.7463
rhand -31.1623 -16.8281
rfingers 7.12502
rthumb -4.4399 -46.7615
lclavicle -4.20181e-014 -2.26615e-014
lhumerus -38.9938 -6.61074 84.0847
lradius 15.9617
lwrist -25.0704
lhand -36.8736 7.7105
lfingers 7.12502
lthumb -9.9527 37.4552
rfemur 15.6101 -18.6156 16.8835
rtibia 15.5193
rfoot -19.7105 1.71783
rtoes -8.96642
lfemur -12.9334 3.17317 -6.25073
ltibia 46.0286
lfoot -23.6677 -19.1287
ltoes -14.6286
